<svg width="19" height="19" viewBox="0 0 19 19" fill="none" xmlns="http://www.w3.org/2000/svg">
<path d="M15.0168 11.7696C14.6278 11.3646 14.1587 11.148 13.6614 11.148C13.1682 11.148 12.695 11.3605 12.29 11.7656L11.0228 13.0287C10.9185 12.9726 10.8143 12.9205 10.714 12.8683C10.5696 12.7962 10.4333 12.728 10.317 12.6558C9.13002 11.9019 8.05131 10.9194 7.01671 9.64825C6.51545 9.01465 6.1786 8.48131 5.93399 7.93995C6.26281 7.6392 6.56758 7.32641 6.86433 7.02565C6.97661 6.91337 7.08889 6.79708 7.20117 6.6848C8.04329 5.84268 8.04329 4.75194 7.20117 3.90982L6.10642 2.81507C5.98211 2.69076 5.85379 2.56243 5.73348 2.43411C5.49288 2.18549 5.24024 1.92884 4.97959 1.68824C4.59061 1.30327 4.12544 1.09875 3.63621 1.09875C3.14698 1.09875 2.67379 1.30327 2.27278 1.68824C2.26877 1.69225 2.26877 1.69225 2.26476 1.69626L0.901337 3.07171C0.388046 3.585 0.0953106 4.21058 0.0311493 4.9364C-0.0650926 6.10735 0.279774 7.19809 0.54444 7.91188C1.19407 9.66429 2.16451 11.2884 3.61215 13.0287C5.36857 15.126 7.48188 16.7822 9.89595 17.9491C10.8183 18.3862 12.0494 18.9035 13.4248 18.9917C13.509 18.9957 13.5973 18.9998 13.6775 18.9998C14.6038 18.9998 15.3817 18.6669 15.9913 18.0053C15.9953 17.9972 16.0033 17.9932 16.0073 17.9852C16.2158 17.7326 16.4564 17.504 16.7091 17.2594C16.8815 17.095 17.058 16.9225 17.2304 16.7421C17.6274 16.329 17.8359 15.8478 17.8359 15.3546C17.8359 14.8573 17.6234 14.3801 17.2184 13.9791L15.0168 11.7696ZM16.4524 15.9922C16.4484 15.9922 16.4484 15.9962 16.4524 15.9922C16.296 16.1606 16.1356 16.313 15.9632 16.4814C15.7025 16.73 15.4379 16.9907 15.1893 17.2834C14.7842 17.7165 14.307 17.921 13.6815 17.921C13.6213 17.921 13.5572 17.921 13.497 17.917C12.306 17.8408 11.1992 17.3757 10.3691 16.9787C8.09943 15.8799 6.10642 14.32 4.45026 12.343C3.08282 10.6949 2.16852 9.17105 1.563 7.53493C1.19006 6.53642 1.05372 5.75847 1.11387 5.02462C1.15397 4.55544 1.33443 4.16647 1.66726 3.83363L3.0347 2.46619C3.23119 2.28173 3.43972 2.18148 3.64423 2.18148C3.89687 2.18148 4.10138 2.33386 4.2297 2.46218C4.23371 2.46619 4.23772 2.4702 4.24173 2.47421C4.48635 2.70279 4.71893 2.93938 4.96355 3.19202C5.08786 3.32034 5.21618 3.44866 5.34451 3.58099L6.43926 4.67575C6.86433 5.10082 6.86433 5.4938 6.43926 5.91887C6.32297 6.03516 6.21068 6.15146 6.09439 6.26374C5.75754 6.6086 5.43674 6.92941 5.08786 7.2422C5.07984 7.25022 5.07182 7.25423 5.06781 7.26225C4.72294 7.60711 4.78711 7.94396 4.85929 8.17254C4.8633 8.18457 4.86731 8.1966 4.87132 8.20863C5.15603 8.89836 5.55704 9.54799 6.16657 10.3219L6.17058 10.3259C7.27737 11.6894 8.4443 12.752 9.73153 13.5661C9.89595 13.6704 10.0644 13.7546 10.2248 13.8348C10.3691 13.907 10.5055 13.9751 10.6218 14.0473C10.6378 14.0553 10.6539 14.0674 10.6699 14.0754C10.8062 14.1435 10.9346 14.1756 11.0669 14.1756C11.3997 14.1756 11.6083 13.9671 11.6764 13.8989L13.0479 12.5275C13.1842 12.3911 13.4008 12.2267 13.6534 12.2267C13.902 12.2267 14.1065 12.3831 14.2308 12.5195C14.2349 12.5235 14.2349 12.5235 14.2389 12.5275L16.4484 14.737C16.8615 15.1461 16.8615 15.5671 16.4524 15.9922Z" fill="#FFB100"/>
<path d="M10.2679 4.51958C11.3185 4.69602 12.2729 5.19327 13.0348 5.95519C13.7967 6.7171 14.29 7.6715 14.4704 8.72214C14.5145 8.98681 14.7431 9.17127 15.0038 9.17127C15.0359 9.17127 15.0639 9.16726 15.096 9.16325C15.3928 9.11513 15.5893 8.83442 15.5411 8.53768C15.3246 7.26648 14.7231 6.10757 13.8048 5.18926C12.8865 4.27095 11.7275 3.66944 10.4563 3.4529C10.1596 3.40477 9.88291 3.60127 9.83078 3.894C9.77865 4.18674 9.97113 4.47146 10.2679 4.51958Z" fill="#FFB100"/>
<path d="M18.9784 8.3813C18.6215 6.28804 17.635 4.38325 16.1192 2.86744C14.6034 1.35163 12.6986 0.36515 10.6054 0.00825334C10.3126 -0.0438777 10.0359 0.156626 9.98381 0.449362C9.93569 0.746108 10.1322 1.0228 10.4289 1.07493C12.2976 1.39173 14.0019 2.27796 15.3573 3.62935C16.7127 4.98476 17.5949 6.68905 17.9117 8.55774C17.9558 8.82241 18.1844 9.00687 18.4451 9.00687C18.4772 9.00687 18.5052 9.00286 18.5373 8.99885C18.83 8.95474 19.0305 8.67403 18.9784 8.3813Z" fill="#FFB100"/>
</svg>
