<svg width="202" height="175" viewBox="0 0 202 175" fill="none" xmlns="http://www.w3.org/2000/svg">
<path d="M115.601 105.216L92.3096 112.159L96.5767 126.473L119.868 119.529L115.601 105.216Z" fill="url(#paint0_linear)"/>
<path d="M115.203 105.72L92.7012 112.428L96.6839 125.788L119.186 119.079L115.203 105.72Z" fill="white"/>
<g opacity="0.6">
<path opacity="0.6" d="M94.6246 115.248L97.4883 114.394L96.8566 112.275L93.993 113.129L94.6246 115.248Z" fill="#403866"/>
<path opacity="0.6" d="M98.2022 118.669L109.194 115.392L108.99 114.705L97.9974 117.982L98.2022 118.669Z" fill="#403866"/>
<path opacity="0.6" d="M101.625 119.269L109.64 116.88L109.503 116.422L101.488 118.811L101.625 119.269Z" fill="#403866"/>
</g>
<path d="M151.899 71.2825L149.044 85.9434L172.9 90.5892L175.755 75.9284L151.899 71.2825Z" fill="url(#paint1_linear)"/>
<path d="M151.744 71.9277L149.096 85.5898L172.107 90.0512L174.756 76.3891L151.744 71.9277Z" fill="white"/>
<g opacity="0.6">
<path opacity="0.6" d="M152.492 75.1114L155.425 75.6826L155.847 73.5124L152.914 72.9412L152.492 75.1114Z" fill="#F6BC41"/>
<path opacity="0.6" d="M154.075 79.8011L165.334 81.9937L165.471 81.29L154.212 79.0975L154.075 79.8011Z" fill="#F6BC41"/>
<path opacity="0.6" d="M156.829 81.9218L165.038 83.5205L165.129 83.0514L156.92 81.4527L156.829 81.9218Z" fill="#F6BC41"/>
</g>
<path d="M166.734 100.227L153.031 106.17L162.703 128.467L176.406 122.524L166.734 100.227Z" fill="url(#paint2_linear)"/>
<path d="M166.512 100.649L153.723 106.197L163.067 127.738L175.856 122.191L166.512 100.649Z" fill="white"/>
<g opacity="0.6">
<path opacity="0.6" d="M163.908 102.887L165.097 105.628L167.125 104.748L165.936 102.007L163.908 102.887Z" fill="#47E6B1"/>
<path opacity="0.6" d="M160.937 106.846L165.502 117.369L166.16 117.084L161.595 106.561L160.937 106.846Z" fill="#47E6B1"/>
<path opacity="0.6" d="M160.747 110.316L164.075 117.989L164.514 117.799L161.185 110.126L160.747 110.316Z" fill="#47E6B1"/>
</g>
<path d="M100.183 34.8055L76.8916 41.749L81.1587 56.0628L104.45 49.1193L100.183 34.8055Z" fill="url(#paint3_linear)"/>
<path d="M99.7845 35.3118L77.2822 42.02L81.265 55.38L103.767 48.6717L99.7845 35.3118Z" fill="white"/>
<g opacity="0.6">
<path opacity="0.6" d="M79.193 44.8444L82.0566 43.9907L81.425 41.8719L78.5614 42.7256L79.193 44.8444Z" fill="#F55F44"/>
<path opacity="0.6" d="M82.7725 48.2652L93.7646 44.9883L93.5598 44.3013L82.5677 47.5782L82.7725 48.2652Z" fill="#F55F44"/>
<path opacity="0.6" d="M86.1929 48.866L94.208 46.4766L94.0715 46.0186L86.0564 48.408L86.1929 48.866Z" fill="#F55F44"/>
</g>
<path d="M136.474 0.875793L133.619 15.5366L157.475 20.1825L160.331 5.52163L136.474 0.875793Z" fill="url(#paint4_linear)"/>
<path d="M136.697 1.29852L134.032 14.9824L157.08 19.4708L159.745 5.78692L136.697 1.29852Z" fill="white"/>
<g opacity="0.6">
<path opacity="0.6" d="M137.065 4.70517L139.998 5.27637L140.421 3.10616L137.488 2.53497L137.065 4.70517Z" fill="#F6BC41"/>
<path opacity="0.6" d="M138.649 9.39487L149.907 11.5874L150.044 10.8837L138.786 8.6912L138.649 9.39487Z" fill="#F6BC41"/>
<path opacity="0.6" d="M141.403 11.5136L149.612 13.1123L149.704 12.6432L141.494 11.0445L141.403 11.5136Z" fill="#F6BC41"/>
</g>
<path d="M151.307 29.8218L137.604 35.7656L147.276 58.0627L160.979 52.1189L151.307 29.8218Z" fill="url(#paint5_linear)"/>
<path d="M151.088 30.2432L138.299 35.791L147.643 57.3325L160.433 51.7847L151.088 30.2432Z" fill="white"/>
<g opacity="0.6">
<path opacity="0.6" d="M148.484 32.4823L149.673 35.2236L151.701 34.3438L150.512 31.6024L148.484 32.4823Z" fill="#47E6B1"/>
<path opacity="0.6" d="M145.511 36.4425L150.075 46.9653L150.733 46.68L146.168 36.1573L145.511 36.4425Z" fill="#47E6B1"/>
<path opacity="0.6" d="M145.321 39.914L148.649 47.5869L149.088 47.3967L145.76 39.7238L145.321 39.914Z" fill="#47E6B1"/>
</g>
<path d="M34.7456 87.7933L11.4541 94.7368L15.7212 109.051L39.0127 102.107L34.7456 87.7933Z" fill="url(#paint6_linear)"/>
<path d="M34.3499 88.2991L11.8477 95.0073L15.8304 108.367L38.3327 101.659L34.3499 88.2991Z" fill="white"/>
<g opacity="0.6">
<path opacity="0.6" d="M13.7682 97.8405L16.6318 96.9868L16.0002 94.868L13.1366 95.7217L13.7682 97.8405Z" fill="#F6BC41"/>
<path opacity="0.6" d="M17.3478 101.261L28.3398 97.9844L28.135 97.2974L17.1429 100.574L17.3478 101.261Z" fill="#F6BC41"/>
<path opacity="0.6" d="M20.7691 101.862L28.7842 99.4722L28.6476 99.0142L20.6326 101.404L20.7691 101.862Z" fill="#F6BC41"/>
</g>
<path d="M71.0455 53.867L68.1904 68.5278L92.0467 73.1737L94.9018 58.5128L71.0455 53.867Z" fill="url(#paint7_linear)"/>
<path d="M71.0121 54.4062L68.3633 68.0684L91.3745 72.5297L94.0233 58.8676L71.0121 54.4062Z" fill="white"/>
<g opacity="0.6">
<path opacity="0.6" d="M71.6343 57.6954L74.5674 58.2666L74.99 56.0964L72.057 55.5252L71.6343 57.6954Z" fill="#F55F44"/>
<path opacity="0.6" d="M73.2198 62.3856L84.4785 64.5781L84.6155 63.8745L73.3569 61.6819L73.2198 62.3856Z" fill="#F55F44"/>
<path opacity="0.6" d="M75.9732 64.5058L84.1826 66.1045L84.274 65.6354L76.0645 64.0367L75.9732 64.5058Z" fill="#F55F44"/>
</g>
<path d="M85.8784 82.812L72.1758 88.7559L81.8477 111.053L95.5503 105.109L85.8784 82.812Z" fill="url(#paint8_linear)"/>
<path d="M85.6597 83.233L72.8701 88.7808L82.2143 110.322L95.0038 104.774L85.6597 83.233Z" fill="white"/>
<g opacity="0.6">
<path opacity="0.6" d="M83.055 85.472L84.2441 88.2134L86.2725 87.3335L85.0834 84.5921L83.055 85.472Z" fill="#47E6B1"/>
<path opacity="0.6" d="M80.0839 89.4303L84.6484 99.9531L85.3061 99.6678L80.7416 89.145L80.0839 89.4303Z" fill="#47E6B1"/>
<path opacity="0.6" d="M79.8944 92.9009L83.2227 100.574L83.6611 100.384L80.3328 92.7107L79.8944 92.9009Z" fill="#47E6B1"/>
</g>
<path d="M37.4868 45.7484L14.1953 52.6919L18.4624 67.0056L41.7539 60.0621L37.4868 45.7484Z" fill="url(#paint9_linear)"/>
<path d="M37.5074 46.0289L14.9658 52.8384L19.0087 66.2217L41.5503 59.4122L37.5074 46.0289Z" fill="white"/>
<g opacity="0.6">
<path opacity="0.6" d="M16.5035 55.7961L19.3672 54.9424L18.7355 52.8236L15.8719 53.6772L16.5035 55.7961Z" fill="#F6BC41"/>
<path opacity="0.6" d="M20.0811 59.2173L31.0732 55.9404L30.8684 55.2534L19.8763 58.5303L20.0811 59.2173Z" fill="#F6BC41"/>
<path opacity="0.6" d="M23.5035 59.8176L31.5186 57.4282L31.382 56.9702L23.3669 59.3596L23.5035 59.8176Z" fill="#F6BC41"/>
</g>
<path d="M73.5879 11.9953L70.75 26.6328L94.5684 31.2507L97.4063 16.6131L73.5879 11.9953Z" fill="url(#paint10_linear)"/>
<path d="M74.0037 12.2458L71.3389 25.9297L94.3867 30.4181L97.0516 16.7342L74.0037 12.2458Z" fill="white"/>
<g opacity="0.6">
<path opacity="0.6" d="M74.3726 15.6524L77.3057 16.2236L77.7283 14.0534L74.7952 13.4822L74.3726 15.6524Z" fill="#F6BC41"/>
<path opacity="0.6" d="M75.9562 20.3402L87.2148 22.5327L87.3519 21.8291L76.0932 19.6365L75.9562 20.3402Z" fill="#F6BC41"/>
<path opacity="0.6" d="M78.7076 22.4608L86.917 24.0596L87.0083 23.5905L78.7989 21.9917L78.7076 22.4608Z" fill="#F6BC41"/>
</g>
<path d="M88.6177 40.769L74.915 46.7129L84.587 69.01L98.2896 63.0661L88.6177 40.769Z" fill="url(#paint11_linear)"/>
<path d="M88.395 41.1915L75.6055 46.7393L84.9496 68.2808L97.7392 62.733L88.395 41.1915Z" fill="white"/>
<g opacity="0.6">
<path opacity="0.6" d="M85.7913 43.4281L86.9805 46.1694L89.0088 45.2896L87.8197 42.5482L85.7913 43.4281Z" fill="#47E6B1"/>
<path opacity="0.6" d="M82.8203 47.3888L87.3848 57.9116L88.0424 57.6263L83.4779 47.1035L82.8203 47.3888Z" fill="#47E6B1"/>
<path opacity="0.6" d="M82.6307 50.8545L85.959 58.5273L86.3974 58.3372L83.0691 50.6643L82.6307 50.8545Z" fill="#47E6B1"/>
</g>
<path opacity="0.25" d="M14.8237 15.4815C15.5246 15.4815 16.0928 14.9133 16.0928 14.2124C16.0928 13.5115 15.5246 12.9434 14.8237 12.9434C14.1229 12.9434 13.5547 13.5115 13.5547 14.2124C13.5547 14.9133 14.1229 15.4815 14.8237 15.4815Z" fill="#535461"/>
<path opacity="0.25" d="M147.311 126.633C148.012 126.633 148.58 126.065 148.58 125.364C148.58 124.663 148.012 124.095 147.311 124.095C146.61 124.095 146.042 124.663 146.042 125.364C146.042 126.065 146.61 126.633 147.311 126.633Z" fill="#535461"/>
<path opacity="0.25" d="M35.2144 120.323C35.9152 120.323 36.4834 119.755 36.4834 119.054C36.4834 118.353 35.9152 117.785 35.2144 117.785C34.5135 117.785 33.9453 118.353 33.9453 119.054C33.9453 119.755 34.5135 120.323 35.2144 120.323Z" fill="#535461"/>
<path opacity="0.25" d="M159.109 102.658C159.81 102.658 160.378 102.09 160.378 101.389C160.378 100.688 159.81 100.12 159.109 100.12C158.408 100.12 157.84 100.688 157.84 101.389C157.84 102.09 158.408 102.658 159.109 102.658Z" fill="#535461"/>
<path opacity="0.25" d="M171.05 44.4443C171.751 44.4443 172.319 43.8762 172.319 43.1753C172.319 42.4744 171.751 41.9062 171.05 41.9062C170.349 41.9062 169.781 42.4744 169.781 43.1753C169.781 43.8762 170.349 44.4443 171.05 44.4443Z" fill="#535461"/>
<path opacity="0.25" d="M77.3574 1.12985H76.2298V0H75.7681V1.12985H74.6406V1.58921H75.7681V2.71674H76.2298V1.58921H77.3574V1.12985Z" fill="#535461"/>
<path opacity="0.25" d="M33.9394 18.421H32.8119V17.2935H32.3502V18.421H31.2227V18.8827H32.3502V20.0102H32.8119V18.8827H33.9394V18.421Z" fill="#535461"/>
<path opacity="0.25" d="M16.2773 82.8546H15.1498V81.7271H14.6881V82.8546H13.5605V83.3163H14.6881V84.4438H15.1498V83.3163H16.2773V82.8546Z" fill="#535461"/>
<path opacity="0.25" d="M13.7405 36.9048H12.6107V35.7749H12.1513V36.9048H11.0215V37.3641H12.1513V38.494H12.6107V37.3641H13.7405V36.9048Z" fill="#535461"/>
<path opacity="0.25" d="M2.71674 68.479H1.58921V67.3491H1.12985V68.479H0V68.9383H1.12985V70.0659H1.58921V68.9383H2.71674V68.479Z" fill="#535461"/>
<path opacity="0.25" d="M201.189 52.1983H200.062V51.0708H199.6V52.1983H198.473V52.66H199.6V53.7875H200.062V52.66H201.189V52.1983Z" fill="#535461"/>
<path opacity="0.25" d="M161.881 66.8769H160.753V65.7471H160.292V66.8769H159.164V67.3363H160.292V68.4661H160.753V67.3363H161.881V66.8769Z" fill="#535461"/>
<path opacity="0.25" d="M128.316 27.2877H127.186V26.1602H126.727V27.2877H125.597V27.7494H126.727V28.8769H127.186V27.7494H128.316V27.2877Z" fill="#535461"/>
<path d="M63.545 91.812C62.733 94.4475 63.951 97.5633 66.329 98.9507C67.3243 99.5307 68.4727 99.8253 69.4402 100.454C71.5398 101.821 72.368 104.442 73.0501 106.853C73.8319 109.625 74.6184 112.555 73.9015 115.344C73.4375 117.121 72.4051 118.694 71.8135 120.434C71.3194 121.891 71.1476 123.438 71.3101 124.967C71.3959 125.779 71.6001 126.624 72.1546 127.222C72.9573 128.088 74.2426 128.218 75.4026 128.426C77.8594 128.893 80.1706 129.935 82.1467 131.468C84.1228 133 85.7074 134.979 86.7707 137.243" stroke="url(#paint12_linear)" stroke-width="2" stroke-miterlimit="10"/>
<path d="M63.794 91.812C62.982 94.4475 64.2 97.5633 66.578 98.9507C67.5733 99.5307 68.7217 99.8253 69.6892 100.454C71.7888 101.821 72.617 104.442 73.2991 106.853C74.081 109.625 74.8675 112.555 74.1506 115.344C73.6866 117.121 72.6542 118.694 72.0626 120.434C71.5684 121.891 71.3966 123.438 71.5591 124.967C71.6449 125.779 71.8491 126.624 72.4036 127.222C73.2063 128.088 74.4916 128.218 75.6516 128.426C78.1084 128.893 80.4196 129.935 82.3957 131.468C84.3718 133 85.9564 134.979 87.0197 137.243" stroke="#535461" stroke-width="2" stroke-miterlimit="10"/>
<path d="M94.527 72.1201C92.5248 74.9041 90.4461 77.9201 90.2744 81.3468C90.0122 86.6202 94.2184 90.9331 96.1139 95.8655C96.9291 98.0377 97.2979 100.352 97.1983 102.67C97.0986 104.988 96.5325 107.262 95.5339 109.356C94.6059 111.256 93.3043 113.143 93.4644 115.247C93.5619 116.532 94.2045 117.699 94.7219 118.88C95.9916 121.839 96.5457 125.056 96.3394 128.27C96.133 131.483 95.1719 134.603 93.534 137.375" stroke="url(#paint13_linear)" stroke-width="2" stroke-miterlimit="10"/>
<path d="M94.7741 72.1201C92.7719 74.9041 90.6932 77.9201 90.5215 81.3468C90.2593 86.6202 94.4655 90.9331 96.3609 95.8655C97.1765 98.0375 97.5457 100.352 97.4465 102.67C97.3472 104.988 96.7815 107.262 95.7833 109.356C94.8553 111.256 93.5537 113.143 93.7138 115.247C93.8113 116.532 94.4539 117.699 94.9713 118.88C96.241 121.839 96.7951 125.056 96.5887 128.27C96.3824 131.483 95.4212 134.603 93.7834 137.375" stroke="#535461" stroke-width="2" stroke-miterlimit="10"/>
<path d="M122.636 97.2363L123.603 105.124C123.731 106.173 123.835 107.317 123.279 108.21C122.745 109.057 121.745 109.46 120.959 110.087C118.407 112.14 118.639 116.084 119.511 119.246C120.383 122.408 121.664 125.805 120.439 128.847C119.933 130.102 119.047 131.167 118.372 132.327C117.24 134.341 116.792 136.667 117.093 138.957" stroke="url(#paint14_linear)" stroke-width="2" stroke-miterlimit="10"/>
<path d="M122.867 97.2363L123.835 105.124C123.962 106.173 124.067 107.317 123.51 108.21C122.976 109.057 121.977 109.46 121.19 110.087C118.638 112.14 118.87 116.084 119.742 119.246C120.615 122.408 121.895 125.805 120.67 128.847C120.165 130.102 119.278 131.167 118.603 132.327C117.472 134.341 117.023 136.667 117.325 138.957" stroke="#535461" stroke-width="2" stroke-miterlimit="10"/>
<g opacity="0.7">
<path opacity="0.7" d="M147.742 64.786C147.739 61.0941 146.863 57.4552 145.185 54.1665C143.508 50.8778 141.076 48.0326 138.088 45.8633C135.101 43.6939 131.643 42.2619 127.996 41.6843C124.35 41.1066 120.618 41.3996 117.107 42.5394C117.3 41.2242 117.4 39.8969 117.406 38.5676C117.443 32.4837 115.109 26.6245 110.899 22.2327C106.688 17.841 100.933 15.2623 94.8527 15.0435C88.7726 14.8247 82.8465 16.983 78.3312 21.0607C73.816 25.1384 71.0668 30.8147 70.6669 36.8856C67.1548 35.7436 63.4223 35.4488 59.7745 36.0253C56.1266 36.6017 52.6669 38.0331 49.6781 40.2025C46.6892 42.3718 44.2561 45.2175 42.5774 48.5071C40.8988 51.7967 40.0223 55.4367 40.0195 59.1298C40.0195 70.8691 48.6639 87.5662 59.9368 90.5243L61.6885 91.5265L60.7373 94.7885H66.3749L65.1499 91.5219L66.8946 90.5243C75.6039 88.2391 82.7426 77.7526 85.5405 67.6861C87.0709 68.7067 88.756 69.4737 90.5309 69.9573L92.2825 70.9596L91.3313 74.2215H96.9689L95.7439 70.955L97.4886 69.9573C98.7832 69.609 100.03 69.1025 101.201 68.4493C102.706 79.7362 110.713 93.5194 120.86 96.1805L122.612 97.1827L121.661 100.445H127.298L126.073 97.1781L127.818 96.1805C139.107 93.2224 147.742 76.5253 147.742 64.786Z" fill="url(#paint15_linear)"/>
</g>
<path d="M67.2649 93.5914H61.8105L62.7641 90.3179H66.0376L67.2649 93.5914Z" fill="#DE636D"/>
<path d="M87.0411 59.0884C87.0411 71.591 76.9049 89.9098 64.4024 89.9098C51.8998 89.9098 41.7637 71.5817 41.7637 59.0884C41.7637 53.0842 44.1488 47.326 48.3944 43.0804C52.64 38.8348 58.3982 36.4497 64.4024 36.4497C70.4065 36.4497 76.1648 38.8348 80.4103 43.0804C84.6559 47.326 87.0411 53.0842 87.0411 59.0884Z" fill="#DE6B48"/>
<path d="M66.0364 90.4551H62.7629L60.8535 89.3647H67.9458L66.0364 90.4551Z" fill="#535461"/>
<path opacity="0.1" d="M56.2185 41.4956C56.2185 41.4956 46.6717 46.6785 45.3145 57.0397L56.2185 41.4956Z" fill="white"/>
<path d="M96.8694 73.6905H91.415L92.3686 70.417H95.6421L96.8694 73.6905Z" fill="#295EAC"/>
<path d="M116.772 39.0103C116.772 51.5128 106.636 69.8317 94.1336 69.8317C81.631 69.8317 71.4902 51.5151 71.4902 39.0103C71.4902 33.0061 73.8754 27.2479 78.121 23.0023C82.3665 18.7567 88.1248 16.3716 94.1289 16.3716C100.133 16.3716 105.891 18.7567 110.137 23.0023C114.382 27.2479 116.768 33.0061 116.768 39.0103H116.772Z" fill="#00A7E1"/>
<path d="M95.6429 70.5537H92.3693L90.46 69.4609H97.5522L95.6429 70.5537Z" fill="#535461"/>
<path opacity="0.1" d="M85.824 21.5928C85.824 21.5928 76.2771 26.7757 74.9199 37.1369L85.824 21.5928Z" fill="white"/>
<path d="M126.227 99.0647H120.771L121.726 95.7935H124.998L126.227 99.0647Z" fill="#85A5AE"/>
<path d="M146.236 64.6592C146.236 77.1618 136.1 95.4806 123.598 95.4806C111.095 95.4806 100.959 77.1525 100.959 64.6592C100.959 58.655 103.344 52.8968 107.59 48.6512C111.835 44.4057 117.594 42.0205 123.598 42.0205C129.602 42.0205 135.36 44.4057 139.606 48.6512C143.851 52.8968 146.236 58.655 146.236 64.6592Z" fill="#EDDEA4"/>
<path d="M124.998 95.9283H121.727L119.817 94.8379H126.907L124.998 95.9283Z" fill="#535461"/>
<path opacity="0.1" d="M115.179 46.9688C115.179 46.9688 105.633 52.1517 104.275 62.5128L115.179 46.9688Z" fill="white"/>
<path d="M131.119 133.392L68.5107 136.522L70.4346 175L133.043 171.869L131.119 133.392Z" fill="url(#paint16_linear)"/>
<path d="M129.762 134.028L69.3564 137.12L71.192 172.982L131.598 169.89L129.762 134.028Z" fill="#EEEEEE"/>
<path d="M72.3927 145.411L80.0781 145.018L79.787 139.33L72.1016 139.723L72.3927 145.411Z" fill="#F6BC41"/>
<path d="M79.2621 156.157L108.773 154.646L108.679 152.802L79.1677 154.313L79.2621 156.157Z" fill="#F6BC41"/>
<path d="M87.4564 159.745L108.977 158.643L108.914 157.413L87.3935 158.514L87.4564 159.745Z" fill="#F6BC41"/>
<defs>
<linearGradient id="paint0_linear" x1="108.222" y1="123.001" x2="103.955" y2="108.687" gradientUnits="userSpaceOnUse">
<stop stop-color="#808080" stop-opacity="0.25"/>
<stop offset="0.54" stop-color="#808080" stop-opacity="0.12"/>
<stop offset="1" stop-color="#808080" stop-opacity="0.1"/>
</linearGradient>
<linearGradient id="paint1_linear" x1="1222.82" y1="8507.32" x2="1521.92" y2="6971.45" gradientUnits="userSpaceOnUse">
<stop stop-color="#808080" stop-opacity="0.25"/>
<stop offset="0.54" stop-color="#808080" stop-opacity="0.12"/>
<stop offset="1" stop-color="#808080" stop-opacity="0.1"/>
</linearGradient>
<linearGradient id="paint2_linear" x1="-8580.01" y1="7637.15" x2="-7144.52" y2="7014.47" gradientUnits="userSpaceOnUse">
<stop stop-color="#808080" stop-opacity="0.25"/>
<stop offset="0.54" stop-color="#808080" stop-opacity="0.12"/>
<stop offset="1" stop-color="#808080" stop-opacity="0.1"/>
</linearGradient>
<linearGradient id="paint3_linear" x1="1612.41" y1="4307.85" x2="1337.69" y2="3386.33" gradientUnits="userSpaceOnUse">
<stop stop-color="#808080" stop-opacity="0.25"/>
<stop offset="0.54" stop-color="#808080" stop-opacity="0.12"/>
<stop offset="1" stop-color="#808080" stop-opacity="0.1"/>
</linearGradient>
<linearGradient id="paint4_linear" x1="769.18" y1="1286.14" x2="1068.28" y2="-249.729" gradientUnits="userSpaceOnUse">
<stop stop-color="#808080" stop-opacity="0.25"/>
<stop offset="0.54" stop-color="#808080" stop-opacity="0.12"/>
<stop offset="1" stop-color="#808080" stop-opacity="0.1"/>
</linearGradient>
<linearGradient id="paint5_linear" x1="-8988.85" y1="2867.92" x2="-7553.36" y2="2245.24" gradientUnits="userSpaceOnUse">
<stop stop-color="#808080" stop-opacity="0.25"/>
<stop offset="0.54" stop-color="#808080" stop-opacity="0.12"/>
<stop offset="1" stop-color="#808080" stop-opacity="0.1"/>
</linearGradient>
<linearGradient id="paint6_linear" x1="-5534.65" y1="8649.15" x2="-5809.41" y2="7727.49" gradientUnits="userSpaceOnUse">
<stop stop-color="#808080" stop-opacity="0.25"/>
<stop offset="0.54" stop-color="#808080" stop-opacity="0.12"/>
<stop offset="1" stop-color="#808080" stop-opacity="0.1"/>
</linearGradient>
<linearGradient id="paint7_linear" x1="-3887.1" y1="7319.65" x2="-3588" y2="5783.78" gradientUnits="userSpaceOnUse">
<stop stop-color="#808080" stop-opacity="0.25"/>
<stop offset="0.54" stop-color="#808080" stop-opacity="0.12"/>
<stop offset="1" stop-color="#808080" stop-opacity="0.1"/>
</linearGradient>
<linearGradient id="paint8_linear" x1="-16228.5" y1="7664.07" x2="-14793" y2="7041.39" gradientUnits="userSpaceOnUse">
<stop stop-color="#808080" stop-opacity="0.25"/>
<stop offset="0.54" stop-color="#808080" stop-opacity="0.12"/>
<stop offset="1" stop-color="#808080" stop-opacity="0.1"/>
</linearGradient>
<linearGradient id="paint9_linear" x1="-4806.52" y1="5733.93" x2="-5081.23" y2="4812.42" gradientUnits="userSpaceOnUse">
<stop stop-color="#808080" stop-opacity="0.25"/>
<stop offset="0.54" stop-color="#808080" stop-opacity="0.12"/>
<stop offset="1" stop-color="#808080" stop-opacity="0.1"/>
</linearGradient>
<linearGradient id="paint10_linear" x1="-3374.79" y1="2912.47" x2="-3077.5" y2="1379.05" gradientUnits="userSpaceOnUse">
<stop stop-color="#808080" stop-opacity="0.25"/>
<stop offset="0.54" stop-color="#808080" stop-opacity="0.12"/>
<stop offset="1" stop-color="#808080" stop-opacity="0.1"/>
</linearGradient>
<linearGradient id="paint11_linear" x1="-15302" y1="4628.7" x2="-13866.5" y2="4006.02" gradientUnits="userSpaceOnUse">
<stop stop-color="#808080" stop-opacity="0.25"/>
<stop offset="0.54" stop-color="#808080" stop-opacity="0.12"/>
<stop offset="1" stop-color="#808080" stop-opacity="0.1"/>
</linearGradient>
<linearGradient id="paint12_linear" x1="10351.3" y1="25865.9" x2="12773.6" y2="25865.9" gradientUnits="userSpaceOnUse">
<stop stop-color="#808080" stop-opacity="0.25"/>
<stop offset="0.54" stop-color="#808080" stop-opacity="0.12"/>
<stop offset="1" stop-color="#808080" stop-opacity="0.1"/>
</linearGradient>
<linearGradient id="paint13_linear" x1="3944.59" y1="34338.8" x2="4166.83" y2="34338.8" gradientUnits="userSpaceOnUse">
<stop stop-color="#808080" stop-opacity="0.25"/>
<stop offset="0.54" stop-color="#808080" stop-opacity="0.12"/>
<stop offset="1" stop-color="#808080" stop-opacity="0.1"/>
</linearGradient>
<linearGradient id="paint14_linear" x1="4605.71" y1="24408.4" x2="4812.82" y2="24408.4" gradientUnits="userSpaceOnUse">
<stop stop-color="#808080" stop-opacity="0.25"/>
<stop offset="0.54" stop-color="#808080" stop-opacity="0.12"/>
<stop offset="1" stop-color="#808080" stop-opacity="0.1"/>
</linearGradient>
<linearGradient id="paint15_linear" x1="61556.2" y1="43286.1" x2="61556.2" y2="11889.6" gradientUnits="userSpaceOnUse">
<stop stop-color="#808080" stop-opacity="0.25"/>
<stop offset="0.54" stop-color="#808080" stop-opacity="0.12"/>
<stop offset="1" stop-color="#808080" stop-opacity="0.1"/>
</linearGradient>
<linearGradient id="paint16_linear" x1="307.946" y1="30401.8" x2="-11.1284" y2="24020.3" gradientUnits="userSpaceOnUse">
<stop stop-color="#808080" stop-opacity="0.25"/>
<stop offset="0.54" stop-color="#808080" stop-opacity="0.12"/>
<stop offset="1" stop-color="#808080" stop-opacity="0.1"/>
</linearGradient>
</defs>
</svg>
