<svg width="14" height="13" viewBox="0 0 14 13" fill="none" xmlns="http://www.w3.org/2000/svg">
<path fill-rule="evenodd" clip-rule="evenodd" d="M2 1C2 0.447715 2.44772 0 3 0C3.55228 0 4 0.447715 4 1V3H10V1C10 0.447715 10.4477 0 11 0C11.5523 0 12 0.447715 12 1V3C13.1046 3 14 3.89543 14 5V11C14 12.1046 13.1046 13 12 13H2C0.89543 13 0 12.1046 0 11V5C0 3.89543 0.895431 3 2 3V1ZM11 4H3H2C1.44772 4 1 4.44772 1 5V11C1 11.5523 1.44772 12 2 12H12C12.5523 12 13 11.5523 13 11V5C13 4.44772 12.5523 4 12 4H11ZM5 6C5 6.55228 4.55228 7 4 7C3.44772 7 3 6.55228 3 6C3 5.44772 3.44772 5 4 5C4.55228 5 5 5.44772 5 6ZM7 7C7.55228 7 8 6.55228 8 6C8 5.44772 7.55228 5 7 5C6.44772 5 6 5.44772 6 6C6 6.55228 6.44772 7 7 7ZM11 6C11 6.55228 10.5523 7 10 7C9.44771 7 9 6.55228 9 6C9 5.44772 9.44771 5 10 5C10.5523 5 11 5.44772 11 6ZM4 10C4.55228 10 5 9.55229 5 9C5 8.44771 4.55228 8 4 8C3.44772 8 3 8.44771 3 9C3 9.55229 3.44772 10 4 10ZM8 9C8 9.55228 7.55228 10 7 10C6.44772 10 6 9.55228 6 9C6 8.44771 6.44772 8 7 8C7.55228 8 8 8.44771 8 9ZM10 10C10.5523 10 11 9.55228 11 9C11 8.44771 10.5523 8 10 8C9.44771 8 9 8.44771 9 9C9 9.55228 9.44771 10 10 10Z" fill="white"/>
</svg>
