<svg width="6" height="6" viewBox="0 0 6 6" fill="none" xmlns="http://www.w3.org/2000/svg">
<path d="M5.02315 0.167614C5.24662 -0.0558558 5.60893 -0.0558559 5.8324 0.167614C6.05587 0.391083 6.05587 0.753399 5.8324 0.976869L0.976931 5.8324C0.753464 6.05587 0.391153 6.05587 0.167686 5.8324C-0.0557807 5.60893 -0.0557807 5.24661 0.167686 5.02314L5.02315 0.167614Z" fill="#333333"/>
<path d="M5.83231 5.02313C6.05578 5.2466 6.05578 5.60892 5.83231 5.83239C5.60885 6.05586 5.24654 6.05586 5.02307 5.83239L0.1676 0.976857C-0.0558666 0.753388 -0.0558667 0.391072 0.1676 0.167602C0.391067 -0.0558674 0.753378 -0.0558674 0.976845 0.167602L5.83231 5.02313Z" fill="#333333"/>
</svg>
