<svg width="228" height="146" viewBox="0 0 228 146" fill="none" xmlns="http://www.w3.org/2000/svg">
<path opacity="0.1" d="M26.3021 51.3817C30.5688 61.0121 17.9 65.267 11.4934 73.6174C9.34914 76.4176 0 86.3306 0 98.5855C5.91483e-09 116.931 35.4087 103.523 45.7854 100.237C52.2641 98.1857 57.7112 93.5529 64.2468 91.6854C75.1759 88.5576 86.7607 93.743 96.1203 100.204C102.746 104.771 109.841 110.337 117.828 109.358C123.447 108.67 128.217 104.728 131.454 100.086C134.18 96.1769 136.341 93.143 141.183 92.1048C155.694 89.0053 169.794 97.3921 184.113 93.502C193.786 90.8809 211.521 90.0133 212.847 76.041C215.72 45.7607 233.104 43.9529 224.119 24.9844C216.537 8.96817 188.841 11.053 175.78 16.7462C167.152 20.5163 159.492 31.7848 150.076 31.8022C123.142 31.8573 111.441 9.29933 85.5365 8.84959C70.186 8.58309 60.5131 17.5157 53.4879 18.7957C44.5362 20.4268 19.8635 18.7164 19.2291 31.8022C18.9406 37.8111 24.0397 46.2728 26.3021 51.3817Z" fill="#F6BC41"/>
<path d="M222.11 112.491C221.394 112.126 220.59 111.968 219.789 112.034C218.987 112.101 218.22 112.389 217.574 112.867C215.632 114.345 215.336 117.239 216.066 119.567C216.796 121.896 218.324 123.874 219.521 126.001C221.127 128.858 222.162 132.127 221.896 135.394C221.629 138.661 219.915 141.901 217.056 143.505C214.403 144.993 211.188 144.937 208.147 144.84" stroke="#F2F2F2" stroke-miterlimit="10"/>
<path d="M226.912 115.517C227.357 114.753 226.443 113.391 224.871 112.474C223.298 111.558 221.662 111.434 221.217 112.198C220.772 112.962 221.686 114.324 223.259 115.24C224.831 116.157 226.467 116.28 226.912 115.517Z" fill="#F2F2F2"/>
<path d="M223.88 125.957C224.325 125.193 223.411 123.831 221.838 122.914C220.266 121.998 218.63 121.874 218.185 122.638C217.74 123.402 218.654 124.764 220.226 125.68C221.799 126.597 223.435 126.72 223.88 125.957Z" fill="#F2F2F2"/>
<path d="M217.819 124.387C218.264 123.623 217.35 122.261 215.778 121.344C214.205 120.428 212.569 120.304 212.124 121.068C211.679 121.832 212.593 123.194 214.166 124.11C215.739 125.027 217.374 125.151 217.819 124.387Z" fill="#F2F2F2"/>
<path d="M221.499 136.775C221.944 136.012 221.03 134.649 219.457 133.733C217.885 132.817 216.249 132.693 215.804 133.457C215.359 134.221 216.273 135.583 217.846 136.499C219.418 137.416 221.054 137.539 221.499 136.775Z" fill="#F2F2F2"/>
<path d="M227.194 140.094C227.639 139.33 226.725 137.968 225.153 137.051C223.58 136.135 221.944 136.011 221.499 136.775C221.054 137.539 221.968 138.901 223.541 139.818C225.114 140.734 226.749 140.858 227.194 140.094Z" fill="#F2F2F2"/>
<path d="M203.893 109.886C203.09 109.932 202.316 110.2 201.657 110.66C200.998 111.121 200.48 111.756 200.162 112.495C199.229 114.75 200.43 117.399 202.233 119.043C204.037 120.687 206.353 121.627 208.457 122.863C211.284 124.522 213.824 126.826 215.238 129.782C216.653 132.739 216.803 136.402 215.141 139.227C213.598 141.849 210.792 143.418 208.116 144.865" stroke="#3F3D56" stroke-miterlimit="10"/>
<path d="M206.27 111.683C208.09 111.683 209.566 110.966 209.566 110.082C209.566 109.198 208.09 108.481 206.27 108.481C204.45 108.481 202.975 109.198 202.975 110.082C202.975 110.966 204.45 111.683 206.27 111.683Z" fill="#403866"/>
<path d="M208.906 122.23C210.726 122.23 212.202 121.513 212.202 120.629C212.202 119.745 210.726 119.028 208.906 119.028C207.086 119.028 205.61 119.745 205.61 120.629C205.61 121.513 207.086 122.23 208.906 122.23Z" fill="#403866"/>
<path d="M202.881 123.924C204.701 123.924 206.176 123.208 206.176 122.323C206.176 121.439 204.701 120.723 202.881 120.723C201.06 120.723 199.585 121.439 199.585 122.323C199.585 123.208 201.06 123.924 202.881 123.924Z" fill="#403866"/>
<path d="M212.297 132.776C214.117 132.776 215.592 132.059 215.592 131.175C215.592 130.291 214.117 129.574 212.297 129.574C210.477 129.574 209.001 130.291 209.001 131.175C209.001 132.059 210.477 132.776 212.297 132.776Z" fill="#403866"/>
<path d="M218.888 132.776C220.709 132.776 222.184 132.059 222.184 131.175C222.184 130.291 220.709 129.574 218.888 129.574C217.068 129.574 215.593 130.291 215.593 131.175C215.593 132.059 217.068 132.776 218.888 132.776Z" fill="#403866"/>
<path d="M129.075 144.844H222.184" stroke="#3F3D56" stroke-miterlimit="10"/>
<path d="M152.056 65.654C152.056 65.654 141.7 67.2903 142.973 65.2254C144.245 63.1605 151.022 61.0974 152.265 61.5283C153.508 61.9591 152.056 65.654 152.056 65.654Z" fill="#FFC1C7"/>
<path opacity="0.1" d="M152.056 65.654C152.056 65.654 141.7 67.2903 142.973 65.2254C144.245 63.1605 151.022 61.0974 152.265 61.5283C153.508 61.9591 152.056 65.654 152.056 65.654Z" fill="black"/>
<path d="M163.932 42.5636C163.932 42.5636 157.242 44.3585 160.342 50.0693C160.342 50.0693 165.4 60.0223 163.279 60.675C161.158 61.3277 151.368 61.0013 151.368 61.0013C151.368 61.0013 149.084 66.549 150.226 66.7121C151.368 66.8753 169.643 70.6281 171.601 67.0385C173.559 63.4488 171.601 47.9481 171.601 47.9481C171.601 47.9481 168.827 40.2793 163.932 42.5636Z" fill="#F6BC41"/>
<path opacity="0.1" d="M163.932 42.5636C163.932 42.5636 157.242 44.3585 160.342 50.0693C160.342 50.0693 165.4 60.0223 163.279 60.675C161.158 61.3277 151.368 61.0013 151.368 61.0013C151.368 61.0013 149.084 66.549 150.226 66.7121C151.368 66.8753 169.643 70.6281 171.601 67.0385C173.559 63.4488 171.601 47.9481 171.601 47.9481C171.601 47.9481 168.827 40.2793 163.932 42.5636Z" fill="#F6BC41"/>
<path d="M182.86 127.41C182.86 127.41 185.797 134.426 184.166 135.731C182.534 137.036 182.86 139.484 184.003 139.484C185.145 139.484 187.755 137.2 189.224 134.426C190.318 132.359 192.136 128.211 192.992 126.229C193.052 126.09 193.082 125.94 193.08 125.789C193.078 125.638 193.045 125.488 192.981 125.351C192.918 125.214 192.826 125.092 192.712 124.992C192.598 124.893 192.464 124.819 192.319 124.775L187.592 123.331L182.86 127.41Z" fill="#3F3D56"/>
<path d="M151.858 135.894C151.858 135.894 145.657 140.952 142.394 140.789C139.131 140.626 138.641 144.052 142.394 144.542C146.147 145.031 157.405 145.194 158.384 144.542C159.363 143.889 159.037 137.036 158.384 136.873C157.732 136.71 151.858 135.894 151.858 135.894Z" fill="#3F3D56"/>
<path d="M172.907 83.8441C172.907 83.8441 172.907 88.9022 170.296 91.0234C170.296 91.0234 167.196 106.85 169.97 107.829C172.744 108.808 185.308 117.293 186.45 121.535L189.224 123.656C189.224 123.656 184.165 128.715 183.186 128.715C182.207 128.715 172.581 115.498 163.933 113.051C163.933 113.051 158.548 111.745 158.712 104.729C158.875 97.7132 165.238 79.1123 165.238 79.1123H172.581L172.907 83.8441Z" fill="#2F2E41"/>
<path opacity="0.1" d="M172.907 83.8441C172.907 83.8441 172.907 88.9022 170.296 91.0234C170.296 91.0234 167.196 106.85 169.97 107.829C172.744 108.808 185.308 117.293 186.45 121.535L189.224 123.656C189.224 123.656 184.165 128.715 183.186 128.715C182.207 128.715 172.581 115.498 163.933 113.051C163.933 113.051 158.548 111.745 158.712 104.729C158.875 97.7132 165.238 79.1123 165.238 79.1123H172.581L172.907 83.8441Z" fill="black"/>
<path d="M155.939 80.4175C155.939 80.4175 151.044 95.7551 151.86 101.792C151.86 101.792 149.902 107.503 151.37 113.703C152.839 119.904 151.207 135.894 150.881 136.22C150.555 136.546 154.47 139.973 158.713 137.199C158.713 137.199 158.876 133.283 159.692 132.467C160.508 131.651 160.508 114.519 159.692 112.072C158.876 109.624 168.503 91.8391 168.503 91.8391C168.503 91.8391 173.724 87.1073 171.766 84.6598C169.808 82.2123 171.929 77.3174 171.929 77.3174L157.081 78.2964L155.939 80.4175Z" fill="#2F2E41"/>
<path d="M153.655 43.0532C157.259 43.0532 160.181 40.1312 160.181 36.5266C160.181 32.9221 157.259 30 153.655 30C150.05 30 147.128 32.9221 147.128 36.5266C147.128 40.1312 150.05 43.0532 153.655 43.0532Z" fill="#E5AF90"/>
<path d="M157.895 33.5898C157.895 33.5898 163.116 39.627 164.422 39.7901C165.727 39.9533 160.179 46.9694 160.179 46.9694C160.179 46.9694 157.079 41.7481 154.958 41.2586C152.837 40.7691 157.895 33.5898 157.895 33.5898Z" fill="#E5AF90"/>
<path d="M165.402 39.627L164.586 38.4849C164.586 38.4849 158.964 43.4965 158.757 44.8251C158.616 45.5706 158.776 46.3412 159.201 46.9695L162.465 45.501L164.096 42.2377L165.402 39.627Z" fill="#3F3D56"/>
<path d="M155.611 80.0915C155.611 80.0915 154.306 84.0075 155.285 83.8443C156.264 83.6811 156.264 81.56 157.406 81.56C158.548 81.56 159.201 79.7651 159.201 79.7651L155.611 80.0915Z" fill="#3F3D56"/>
<path d="M163.933 80.4175C163.933 80.4175 167.685 88.5757 172.417 87.7599L173.341 87.3639C173.727 87.1987 174.042 86.9023 174.231 86.5271C174.419 86.1518 174.469 85.7221 174.371 85.3137C173.92 83.4345 173.091 80.4175 172.417 80.4175H163.933Z" fill="#3F3D56"/>
<path d="M147.141 36.9361C147.141 36.9361 147.78 34.8948 149.901 35.7106C152.022 36.5264 153.817 38.3212 154.307 37.0159C154.796 35.7106 156.049 34.5098 156.891 35.5181C157.733 36.5264 161.567 38.4028 161.404 37.4238C161.241 36.4448 163.444 30.6525 159.202 28.5313C154.959 26.4102 152.675 24.7785 150.554 26.4102C148.433 28.0418 143.211 31.142 144.027 33.1C144.843 35.0579 144.517 36.0369 145.822 36.5264C147.127 37.0159 147.141 36.9361 147.141 36.9361Z" fill="#2F2E41"/>
<path d="M166.217 40.606C166.217 40.606 166.054 39.1375 164.585 39.4638C163.117 39.7902 159.201 46.3168 159.201 46.3168C158.562 48.4006 158.071 50.527 157.733 52.6802C157.08 56.5962 155.775 70.9547 154.469 73.4022C153.164 75.8497 155.611 81.5605 155.611 81.5605C155.611 81.5605 157.08 79.9288 161.812 80.9078C166.543 81.8868 172.744 82.8658 173.233 82.3763C173.723 81.8868 172.744 80.5815 174.049 78.9498C175.354 77.3182 177.149 46.4799 170.623 43.0535C170.623 43.0535 167.522 40.606 166.217 40.606Z" fill="#F6BC41"/>
<path opacity="0.1" d="M164.585 45.5007C164.585 45.5007 157.895 47.2955 160.995 53.0063C160.995 53.0063 166.054 62.9593 163.932 63.612C161.811 64.2647 152.021 63.9383 152.021 63.9383C152.021 63.9383 150.961 67.4464 152.103 67.6096C153.245 67.7727 170.296 73.5651 172.254 69.9755C174.212 66.3858 172.254 50.8851 172.254 50.8851C172.254 50.8851 169.48 43.2163 164.585 45.5007Z" fill="black"/>
<path d="M136.037 63.1739L146.882 69.1308C146.945 69.1725 147.016 69.2 147.091 69.2113C147.165 69.2225 147.242 69.2173 147.314 69.1959C147.386 69.1746 147.453 69.1376 147.51 69.0877C147.566 69.0377 147.611 68.9759 147.641 68.9067L150.298 63.3537C150.348 63.1954 150.34 63.0243 150.275 62.8715C150.21 62.7188 150.092 62.5945 149.943 62.5213L140.939 57.8804C140.828 57.8137 140.696 57.7902 140.569 57.8145C140.442 57.8388 140.328 57.9092 140.25 58.0121L135.752 62.2492C135.708 62.3281 135.68 62.4152 135.671 62.5052C135.661 62.5952 135.67 62.6861 135.697 62.7726C135.723 62.8591 135.767 62.9393 135.826 63.0082C135.884 63.0772 135.956 63.1336 136.037 63.1739Z" fill="#2F2E41"/>
<path d="M136.761 62.3534L146.928 68.1645L149.633 63.2883L140.911 58.5454L136.761 62.3534Z" fill="#3F3D56"/>
<path d="M145.485 60.7072C145.539 60.662 145.54 60.574 145.487 60.5105C145.434 60.447 145.347 60.4322 145.293 60.4773C145.239 60.5225 145.238 60.6105 145.291 60.674C145.344 60.7375 145.431 60.7523 145.485 60.7072Z" fill="#F2F2F2"/>
<path d="M141.677 65.6569C141.713 65.6269 141.713 65.5685 141.678 65.5263C141.643 65.4842 141.585 65.4744 141.549 65.5043C141.513 65.5343 141.513 65.5927 141.548 65.6349C141.583 65.677 141.641 65.6868 141.677 65.6569Z" fill="#F2F2F2"/>
<path d="M152.208 68.1267C152.208 68.1267 141.749 68.8599 143.196 66.913C144.643 64.9661 151.573 63.4977 152.774 64.0346C153.975 64.5716 152.208 68.1267 152.208 68.1267Z" fill="#E5AF90"/>
<path d="M164.586 44.5212C164.586 44.5212 157.896 46.316 160.997 52.0268C160.997 52.0268 166.055 61.9799 163.934 62.6325C161.812 63.2852 152.023 62.9588 152.023 62.9588C152.023 62.9588 149.738 68.5065 150.88 68.6696C152.022 68.8328 170.297 72.5856 172.255 68.996C174.213 65.4063 172.255 49.9056 172.255 49.9056C172.255 49.9056 169.481 42.2368 164.586 44.5212Z" fill="#F6BC41"/>
<path d="M119.031 37.3462H66.3795C64.6916 37.3462 63.3232 38.7145 63.3232 40.4024V63.4813C63.3232 65.1692 64.6916 66.5376 66.3795 66.5376H119.031C120.719 66.5376 122.088 65.1692 122.088 63.4813V40.4024C122.088 38.7145 120.719 37.3462 119.031 37.3462Z" fill="#F3F3F3"/>
<path d="M7.37897 10.0397C9.50078 10.0397 11.2208 8.31962 11.2208 6.19782C11.2208 4.07602 9.50078 2.35596 7.37897 2.35596C5.25717 2.35596 3.53711 4.07602 3.53711 6.19782C3.53711 8.31962 5.25717 10.0397 7.37897 10.0397Z" fill="#F6BC41"/>
<path d="M8.50886 8.68373C10.6307 8.68373 12.3507 6.96367 12.3507 4.84186C12.3507 2.72006 10.6307 1 8.50886 1C6.38705 1 4.66699 2.72006 4.66699 4.84186C4.66699 6.96367 6.38705 8.68373 8.50886 8.68373Z" stroke="#3F3D56" stroke-miterlimit="10"/>
<path d="M54.1592 58.4015C56.2811 58.4015 58.0011 56.6814 58.0011 54.5596C58.0011 52.4378 56.2811 50.7178 54.1592 50.7178C52.0374 50.7178 50.3174 52.4378 50.3174 54.5596C50.3174 56.6814 52.0374 58.4015 54.1592 58.4015Z" fill="#F2F2F2"/>
<path d="M55.2891 57.0455C57.4109 57.0455 59.131 55.3255 59.131 53.2037C59.131 51.0819 57.4109 49.3618 55.2891 49.3618C53.1673 49.3618 51.4473 51.0819 51.4473 53.2037C51.4473 55.3255 53.1673 57.0455 55.2891 57.0455Z" stroke="#3F3D56" stroke-miterlimit="10"/>
<path d="M83.9893 29.2487C86.1111 29.2487 87.8312 27.5286 87.8312 25.4068C87.8312 23.285 86.1111 21.5649 83.9893 21.5649C81.8675 21.5649 80.1475 23.285 80.1475 25.4068C80.1475 27.5286 81.8675 29.2487 83.9893 29.2487Z" fill="#F6BC41"/>
<path d="M85.1192 27.8927C87.241 27.8927 88.9611 26.1727 88.9611 24.0508C88.9611 21.929 87.241 20.209 85.1192 20.209C82.9974 20.209 81.2773 21.929 81.2773 24.0508C81.2773 26.1727 82.9974 27.8927 85.1192 27.8927Z" stroke="#3F3D56" stroke-miterlimit="10"/>
<path d="M67.9952 15.1187H15.3433C13.6554 15.1187 12.2871 16.487 12.2871 18.1749V41.2538C12.2871 42.9417 13.6554 44.31 15.3433 44.31H67.9952C69.6831 44.31 71.0514 42.9417 71.0514 41.2538V18.1749C71.0514 16.487 69.6831 15.1187 67.9952 15.1187Z" fill="#F6BC41"/>
<path d="M71.4288 12.6387H18.7769C17.089 12.6387 15.7207 14.007 15.7207 15.6949V38.7738C15.7207 40.4617 17.089 41.83 18.7769 41.83H71.4288C73.1167 41.83 74.485 40.4617 74.485 38.7738V15.6949C74.485 14.007 73.1167 12.6387 71.4288 12.6387Z" stroke="#3F3D56" stroke-miterlimit="10"/>
<path d="M122.466 34.8662H69.814C68.1261 34.8662 66.7578 36.2345 66.7578 37.9224V61.0014C66.7578 62.6893 68.1261 64.0576 69.814 64.0576H122.466C124.154 64.0576 125.522 62.6893 125.522 61.0014V37.9224C125.522 36.2345 124.154 34.8662 122.466 34.8662Z" stroke="#3F3D56" stroke-miterlimit="10"/>
</svg>
