<svg width="12" height="14" viewBox="0 0 12 14" fill="none" xmlns="http://www.w3.org/2000/svg">
<path fill-rule="evenodd" clip-rule="evenodd" d="M10.8337 5.25C10.8337 5.5881 10.6898 6.10455 10.3515 6.78824C10.0237 7.45059 9.55997 8.17838 9.03145 8.9117C7.99301 10.3526 6.76463 11.7324 6.00033 12.553C5.23602 11.7324 4.00764 10.3526 2.9692 8.9117C2.44069 8.17838 1.97698 7.45059 1.64919 6.78824C1.31084 6.10455 1.16699 5.5881 1.16699 5.25C1.16699 2.99929 3.22924 1 6.00033 1C8.77141 1 10.8337 2.99929 10.8337 5.25ZM11.8337 5.25C11.8337 7.52639 8.23812 11.6217 6.69274 13.2768C6.31503 13.6813 5.68562 13.6813 5.30791 13.2768C3.76254 11.6217 0.166992 7.52639 0.166992 5.25C0.166992 2.35051 2.77866 0 6.00033 0C9.22199 0 11.8337 2.35051 11.8337 5.25ZM6.00031 6.5C6.9668 6.5 7.75031 5.82843 7.75031 5C7.75031 4.17157 6.9668 3.5 6.00031 3.5C5.03381 3.5 4.25031 4.17157 4.25031 5C4.25031 5.82843 5.03381 6.5 6.00031 6.5Z" fill="white"/>
</svg>
