<svg width="194" height="145" viewBox="0 0 194 145" fill="none" xmlns="http://www.w3.org/2000/svg">
<path d="M140.148 2.49813L5.49701 44.3214C2.46109 45.2644 0.764732 48.4889 1.70808 51.5236L25.9318 129.451C26.8752 132.485 30.101 134.181 33.1369 133.238L167.788 91.4147C170.824 90.4717 172.52 87.2472 171.577 84.2125L147.353 6.28556C146.41 3.25085 143.184 1.55516 140.148 2.49813Z" fill="url(#paint0_linear)"/>
<path d="M139.451 3.72876L7.77142 44.629C4.73551 45.572 3.03915 48.7965 3.98249 51.8312L27.228 126.611C28.1713 129.646 31.3971 131.342 34.4331 130.399L166.113 89.4983C169.148 88.5553 170.845 85.3308 169.902 82.2961L146.656 7.51619C145.713 4.48148 142.487 2.78579 139.451 3.72876Z" fill="white"/>
<path d="M148.462 13.3241L5.78809 57.6392L9.61165 69.9394L152.285 25.6244L148.462 13.3241Z" fill="#F6BC41"/>
<path d="M71.5336 101.378L35.2832 112.637L36.9366 117.956L73.187 106.697L71.5336 101.378Z" fill="#F3EEE2"/>
<path d="M95.3493 84.1377L32.4932 103.661L34.1466 108.98L97.0028 89.4568L95.3493 84.1377Z" fill="#F3EEE2"/>
<path d="M187.361 51.1646H45.4994C42.3203 51.1646 39.7432 53.7407 39.7432 56.9185V138.612C39.7432 141.79 42.3203 144.366 45.4994 144.366H187.361C190.54 144.366 193.117 141.79 193.117 138.612V56.9185C193.117 53.7407 190.54 51.1646 187.361 51.1646Z" fill="url(#paint1_linear)"/>
<path d="M185.132 52.1147H47.2416C44.0625 52.1147 41.4854 54.6909 41.4854 57.8687V136.176C41.4854 139.353 44.0625 141.929 47.2416 141.929H185.132C188.311 141.929 190.888 139.353 190.888 136.176V57.8687C190.888 54.6909 188.311 52.1147 185.132 52.1147Z" fill="white"/>
<path d="M81.3669 95.7158H77.0137V108.074H81.3669V95.7158Z" fill="#F3EEE2"/>
<path d="M86.9401 95.7158H82.5869V108.074H86.9401V95.7158Z" fill="#F3EEE2"/>
<path d="M92.5114 95.7158H88.1582V108.074H92.5114V95.7158Z" fill="#F3EEE2"/>
<path d="M102.263 95.7158H97.9102V108.074H102.263V95.7158Z" fill="#F3EEE2"/>
<path d="M107.835 95.7158H103.481V108.074H107.835V95.7158Z" fill="#F3EEE2"/>
<path d="M113.408 95.7158H109.055V108.074H113.408V95.7158Z" fill="#F3EEE2"/>
<path d="M123.158 95.7158H118.805V108.074H123.158V95.7158Z" fill="#F3EEE2"/>
<path d="M128.73 95.7158H124.377V108.074H128.73V95.7158Z" fill="#F3EEE2"/>
<path d="M134.302 95.7158H129.949V108.074H134.302V95.7158Z" fill="#F3EEE2"/>
<path d="M144.054 95.7158H139.701V108.074H144.054V95.7158Z" fill="#F3EEE2"/>
<path d="M149.627 95.7158H145.273V108.074H149.627V95.7158Z" fill="#F3EEE2"/>
<path d="M155.199 95.7158H150.846V108.074H155.199V95.7158Z" fill="#F3EEE2"/>
<path d="M76.9467 75.645H50.9912V89.873H76.9467V75.645Z" fill="#F6BC41"/>
<path opacity="0.1" d="M167.791 122.304H151.883V138.206H167.791V122.304Z" fill="#F6BC41"/>
<path opacity="0.1" d="M175.745 122.304H159.837V138.206H175.745V122.304Z" fill="#F6BC41"/>
<defs>
<linearGradient id="paint0_linear" x1="86.9292" y1="133.743" x2="87.5082" y2="1.99836" gradientUnits="userSpaceOnUse">
<stop stop-color="#808080" stop-opacity="0.25"/>
<stop offset="0.53514" stop-color="#808080" stop-opacity="0.12"/>
<stop offset="1" stop-color="#808080" stop-opacity="0.1"/>
</linearGradient>
<linearGradient id="paint1_linear" x1="84291.7" y1="63361" x2="84291.7" y2="21845.1" gradientUnits="userSpaceOnUse">
<stop stop-color="#808080" stop-opacity="0.25"/>
<stop offset="0.53514" stop-color="#808080" stop-opacity="0.12"/>
<stop offset="1" stop-color="#808080" stop-opacity="0.1"/>
</linearGradient>
</defs>
</svg>
